<svg width="38" height="53" viewBox="0 0 38 53" fill="none" xmlns="http://www.w3.org/2000/svg">
<path d="M13 21.261H2.5C2.10218 21.261 1.72064 21.1276 1.43934 20.8901C1.15804 20.6527 1 20.3306 1 19.9947V12.3968C1 12.061 1.15804 11.7389 1.43934 11.5014C1.72064 11.2639 2.10218 11.1305 2.5 11.1305H13V2.26631C13 1.93047 13.158 1.60838 13.4393 1.3709C13.7206 1.13342 14.1022 1 14.5 1H23.5C23.8978 1 24.2794 1.13342 24.5607 1.3709C24.842 1.60838 25 1.93047 25 2.26631V11.1305H35.5C35.8978 11.1305 36.2794 11.2639 36.5607 11.5014C36.842 11.7389 37 12.061 37 12.3968V19.9947C37 20.3306 36.842 20.6527 36.5607 20.8901C36.2794 21.1276 35.8978 21.261 35.5 21.261H25V50.3863C25 50.7221 24.842 51.0442 24.5607 51.2817C24.2794 51.5192 23.8978 51.6526 23.5 51.6526H19H14.5C14.1022 51.6526 13.7206 51.5192 13.4393 51.2817C13.158 51.0442 13 50.7221 13 50.3863V21.261Z" stroke="white" stroke-width="2" stroke-linecap="round" stroke-linejoin="round"/>
</svg>
