<svg width="51" height="39" viewBox="0 0 51 39" fill="none" xmlns="http://www.w3.org/2000/svg">
<path d="M25.3626 37.0989C25.3626 37.0989 1.64185 25.8847 1.64185 12.2675C1.64185 9.86027 2.6298 7.52736 4.43762 5.66571C6.24544 3.80407 8.76145 2.52871 11.5576 2.0566C14.3537 1.5845 17.2572 1.94482 19.7741 3.07627C22.291 4.20771 24.2659 6.04039 25.3626 8.26248V8.26248C26.4593 6.04039 28.4341 4.20771 30.951 3.07627C33.4679 1.94482 36.3715 1.5845 39.1676 2.0566C41.9637 2.52871 44.4797 3.80407 46.2876 5.66571C48.0954 7.52736 49.0833 9.86027 49.0833 12.2675C49.0833 25.8847 25.3626 37.0989 25.3626 37.0989Z" stroke="white" stroke-width="2" stroke-linecap="round" stroke-linejoin="round"/>
</svg>
