<?xml version="1.0" encoding="UTF-8"?>
<!DOCTYPE svg PUBLIC "-//W3C//DTD SVG 1.1//EN" "http://www.w3.org/Graphics/SVG/1.1/DTD/svg11.dtd">
<!-- Creator: CorelDRAW X7 -->
<svg xmlns="http://www.w3.org/2000/svg" xml:space="preserve" width="8in" height="8in" version="1.1" style="shape-rendering:geometricPrecision; text-rendering:geometricPrecision; image-rendering:optimizeQuality; fill-rule:evenodd; clip-rule:evenodd"
viewBox="0 0 8000 8000"
 xmlns:xlink="http://www.w3.org/1999/xlink">
 <defs>
  <style type="text/css">
   <![CDATA[
    .str0 {stroke:black;stroke-width:3;stroke-linejoin:round}
    .fil1 {fill:black}
    .fil0 {fill:black;fill-rule:nonzero}
   ]]>
  </style>
 </defs>
 <g id="Layer_x0020_1">
  <metadata id="CorelCorpID_0Corel-Layer"/>
  <g id="_2043922925664">
   <polygon class="fil0" points="2702,3031 3017,3031 3017,3217 2462,3217 2462,2230 2702,2230 "/>
   <path class="fil0" d="M5616 2701c57,12 103,41 138,85 34,45 52,96 52,153 0,82 -29,148 -87,196 -57,48 -138,73 -241,73l-460 0 0 -988 445 0c100,0 178,23 235,69 57,46 85,108 85,187 0,58 -15,106 -45,145 -31,38 -71,65 -122,80zm-357 -82l157 0c40,0 70,-8 91,-26 21,-17 32,-43 32,-76 0,-34 -11,-60 -32,-78 -21,-18 -51,-26 -91,-26l-157 0 0 206zm177 394c40,0 71,-9 93,-27 22,-18 33,-45 33,-80 0,-34 -11,-61 -34,-81 -23,-20 -55,-30 -95,-30l-174 0 0 218 177 0z"/>
   <polygon class="fil0" points="3099,4977 3099,5169 2837,5169 2837,5964 2596,5964 2596,5169 2335,5169 2335,4977 "/>
   <path class="fil0" d="M5017 5446c0,-98 21,-185 63,-261 43,-77 101,-136 177,-179 75,-43 161,-64 257,-64 117,0 217,31 301,93 83,62 139,146 167,253l-264 0c-20,-41 -48,-73 -84,-94 -36,-22 -77,-32 -123,-32 -74,0 -134,25 -180,77 -46,52 -69,120 -69,207 0,86 23,155 69,207 46,51 106,77 180,77 46,0 87,-11 123,-32 36,-22 64,-53 84,-95l264 0c-28,107 -84,191 -167,253 -84,61 -184,92 -301,92 -96,0 -182,-21 -257,-64 -76,-43 -134,-102 -177,-178 -42,-76 -63,-163 -63,-260z"/>
   <g>
    <path class="fil1 str0" d="M976 3589c-12,86 -21,173 -25,261l253 0 2379 0 261 0 0 -261 0 -2424 0 -258c-88,5 -175,14 -261,26 -1350,196 -2418,1283 -2607,2656zm256 0c185,-1231 1141,-2204 2351,-2395l0 2395 -2351 0z"/>
    <path class="fil1 str0" d="M4459 1194c1210,191 2165,1164 2351,2395l-2351 0 0 -2395zm-261 2395l0 261 261 0 2378 0 254 0c-5,-88 -13,-175 -25,-261 -190,-1373 -1257,-2460 -2607,-2656 -86,-12 -173,-21 -261,-26l0 258 0 2424z"/>
    <path class="fil1 str0" d="M7091 4204l-254 0 -2378 0 -261 0 0 261 0 2424 0 258c88,-5 175,-14 261,-26 1350,-196 2417,-1283 2607,-2656 12,-86 20,-173 25,-261zm-2632 261l2351 0c-186,1231 -1141,2204 -2351,2396l0 -2396z"/>
    <path class="fil1 str0" d="M3583 4204l-2379 0 -253 0c4,88 13,175 25,261 189,1373 1257,2460 2607,2656 86,12 173,21 261,26l0 -258 0 -2424 0 -261 -261 0zm-2351 261l2351 0 0 2396c-1210,-192 -2166,-1165 -2351,-2396z"/>
    <path class="fil1 str0" d="M7617 4465c-196,1680 -1506,3014 -3158,3216 -86,11 -173,18 -261,22 -59,3 -118,5 -177,5 -60,0 -119,-2 -177,-5 -88,-4 -175,-11 -261,-22 -1653,-202 -2962,-1536 -3158,-3216 -10,-86 -17,-173 -22,-261 -2,-59 -4,-118 -4,-177 0,-59 2,-118 4,-177 5,-88 12,-175 22,-261 196,-1680 1505,-3014 3158,-3216 86,-11 173,-18 261,-22 58,-3 117,-5 177,-5 59,0 118,2 177,5 88,4 175,11 261,22 1652,202 2962,1536 3158,3216 10,86 17,173 21,261 3,59 4,118 4,177 0,59 -1,118 -4,177 -4,88 -11,175 -21,261zm-3158 3500c1805,-205 3238,-1664 3437,-3500 9,-86 16,-173 20,-261 2,-59 4,-118 4,-177 0,-59 -2,-118 -4,-177 -4,-88 -11,-175 -20,-261 -199,-1836 -1632,-3295 -3437,-3500 -86,-10 -173,-17 -261,-21 -59,-3 -118,-4 -177,-4 -60,0 -119,1 -177,4 -88,4 -175,11 -261,21 -1806,205 -3239,1664 -3438,3500 -9,86 -16,173 -19,261 -3,59 -4,118 -4,177 0,59 1,118 4,177 3,88 10,175 19,261 199,1836 1632,3295 3438,3500 86,10 173,17 261,21 58,3 117,4 177,4 59,0 118,-1 177,-4 88,-4 175,-11 261,-21z"/>
   </g>
  </g>
 </g>
</svg>
