<svg width="79" height="51" viewBox="0 0 79 51" fill="none" xmlns="http://www.w3.org/2000/svg">
<path fill-rule="evenodd" clip-rule="evenodd" d="M66.15 42.6729C67.2648 42.6729 70.8663 42.7659 71.491 43.0141V10.4071H75.5948V48.2159H41.2948L42.3605 47.5541C42.8383 47.2955 43.1323 47.1818 43.6835 46.9439C50.666 44.0276 57.7833 42.6729 66.15 42.6729ZM2.87875 10.4071H6.9825V43.0141C7.5705 42.7763 11.074 42.6729 12.1275 42.6729C19.2448 42.6729 25.9455 43.7277 32.0215 45.8167C33.0628 46.1683 36.6398 47.5954 37.191 48.2159H2.87875V10.4071ZM40.6823 45.4444V9.37299C44.4675 7.23228 44.0143 6.99443 49.3063 5.20534C54.1083 3.58171 58.0038 3.30249 63.4795 3.30249C65.4762 3.30249 66.8605 3.64376 68.6123 3.64376V40.2426C59.3145 40.2426 51.4133 40.9044 43.2793 44.3482C42.6055 44.6274 41.2335 45.3203 40.6823 45.4444ZM9.86125 3.64376C11.3313 3.64376 13.0585 3.30249 15.2023 3.30249C22.8953 3.30249 28.1505 4.26425 34.6553 7.52185L37.24 8.98001C38.1343 9.57982 37.8035 10.4899 37.8035 12.1445V45.4444L32.8178 43.4071C24.4878 40.6252 19.159 40.2426 9.86125 40.2426V3.64376ZM6.9825 1.5651V7.81141H0V50.6462H78.4735V7.81141H71.491V1.5651C70.2905 1.54442 68.5143 1.17212 67.179 1.04802C63.4795 0.696411 63.3693 0.644703 60.1843 0.861876C57.428 1.04802 56.399 0.934267 53.2508 1.59613C48.4978 2.59926 46.2315 3.39556 42.3115 5.3708C41.2213 5.9189 40.327 6.63247 39.2368 7.11853C37.926 6.52906 36.1375 5.19499 33.0138 3.88161C28.9835 2.17526 23.471 0.975633 18.6935 0.882559C17.7257 0.861876 17.2847 0.644703 16.2435 0.696411L6.9825 1.5651Z" fill="white"/>
</svg>
