<svg width="58" height="50" viewBox="0 0 58 50" fill="none" xmlns="http://www.w3.org/2000/svg">
<path d="M18.125 39.0975C22.1291 39.0975 25.375 36.3572 25.375 32.977C25.375 29.5967 22.1291 26.8564 18.125 26.8564C14.1209 26.8564 10.875 29.5967 10.875 32.977C10.875 36.3572 14.1209 39.0975 18.125 39.0975Z" stroke="white" stroke-width="2" stroke-linecap="round" stroke-linejoin="round"/>
<path d="M7.25 43.6879C8.51622 42.2627 10.1581 41.1058 12.0457 40.3091C13.9333 39.5123 16.0146 39.0975 18.125 39.0975C20.2354 39.0975 22.3167 39.5123 24.2043 40.3091C26.0919 41.1058 27.7338 42.2627 29 43.6879" stroke="white" stroke-width="2" stroke-linecap="round" stroke-linejoin="round"/>
<path d="M18.125 19.2058C22.1291 19.2058 25.375 16.4655 25.375 13.0852C25.375 9.70497 22.1291 6.96472 18.125 6.96472C14.1209 6.96472 10.875 9.70497 10.875 13.0852C10.875 16.4655 14.1209 19.2058 18.125 19.2058Z" stroke="white" stroke-width="2" stroke-linecap="round" stroke-linejoin="round"/>
<path d="M7.25 23.7962C8.51622 22.3709 10.1581 21.2141 12.0457 20.4174C13.9333 19.6206 16.0146 19.2058 18.125 19.2058C20.2354 19.2058 22.3167 19.6206 24.2043 20.4174C26.0919 21.2141 27.7338 22.3709 29 23.7962" stroke="white" stroke-width="2" stroke-linecap="round" stroke-linejoin="round"/>
<path d="M39.875 39.0975C43.8791 39.0975 47.125 36.3572 47.125 32.977C47.125 29.5967 43.8791 26.8564 39.875 26.8564C35.8709 26.8564 32.625 29.5967 32.625 32.977C32.625 36.3572 35.8709 39.0975 39.875 39.0975Z" stroke="white" stroke-width="2" stroke-linecap="round" stroke-linejoin="round"/>
<path d="M29 43.6879C30.2662 42.2627 31.9081 41.1058 33.7957 40.3091C35.6833 39.5123 37.7646 39.0975 39.875 39.0975C41.9854 39.0975 44.0667 39.5123 45.9543 40.3091C47.8419 41.1058 49.4838 42.2627 50.75 43.6879" stroke="white" stroke-width="2" stroke-linecap="round" stroke-linejoin="round"/>
<path d="M39.875 19.2058C43.8791 19.2058 47.125 16.4655 47.125 13.0852C47.125 9.70497 43.8791 6.96472 39.875 6.96472C35.8709 6.96472 32.625 9.70497 32.625 13.0852C32.625 16.4655 35.8709 19.2058 39.875 19.2058Z" stroke="white" stroke-width="2" stroke-linecap="round" stroke-linejoin="round"/>
<path d="M29 23.7962C30.2662 22.3709 31.9081 21.2141 33.7957 20.4174C35.6833 19.6206 37.7646 19.2058 39.875 19.2058C41.9854 19.2058 44.0667 19.6206 45.9543 20.4174C47.8419 21.2141 49.4838 22.3709 50.75 23.7962" stroke="white" stroke-width="2" stroke-linecap="round" stroke-linejoin="round"/>
</svg>
